# xmcd CD database file
#
# Track frame offsets:
#	150
#	36973
#	67040
#	99220
#	136536
#	168840
#	203680
#	228389
#
# Disc length: 3536 seconds
#
# Revision: 0
# Processed by: cddbd v1.5.2PL0 Copyright (c) Steve Scherf et al.
# Submitted via: CDex 1.70beta2
#
DISCID=5d0dce08
DTITLE=Maria Baptist Orchestra - Here and Now
DYEAR=2016
DGENRE=Jazz
TTITLE0=Introduction for the Orchestra
TTITLE1=Natural Landscape
TTITLE2=Here and Now
TTITLE3=Love Ballad
TTITLE4=Red Moon
TTITLE5=Roof Garden
TTITLE6=Serenity
TTITLE7=B'Dazzled Blue
EXTD=YEAR: 2016
EXTT0=
EXTT1=
EXTT2=
EXTT3=
EXTT4=
EXTT5=
EXTT6=
EXTT7=
PLAYORDER=
